<?xml version="1.0" encoding="utf-8"?>
<!-- Generator: Adobe Illustrator 16.0.0, SVG Export Plug-In . SVG Version: 6.00 Build 0)  -->
<!DOCTYPE svg PUBLIC "-//W3C//DTD SVG 1.1//EN" "http://www.w3.org/Graphics/SVG/1.1/DTD/svg11.dtd">
<svg version="1.1" id="Layer_1" xmlns="http://www.w3.org/2000/svg" xmlns:xlink="http://www.w3.org/1999/xlink" x="0px" y="0px"
	 width="512px" height="512px" viewBox="0 0 512 512" enable-background="new 0 0 512 512" xml:space="preserve">
<circle fill="#00A79D" cx="256" cy="256" r="222.738"/>
<g>
	<path fill="#FFFFFF" d="M211.937,271.467h-8.812v10.312h0.088c0.001,2.471,0.673,4.916,2.128,6.84
		c11.421,15.09,30.358,24.1,50.659,24.1c20.302,0,39.239-9.01,50.659-24.1c1.456-1.924,2.128-4.369,2.129-6.84h0.088v-10.312h-8.812
		H211.937z"/>
	<path fill="#FFFFFF" d="M326.04,226.929c-0.925-3.218-3.144-5.695-5.933-6.626l-61.688-20.625c-1.579-0.529-3.262-0.529-4.841,0
		l-61.688,20.625c-2.789,0.932-5.006,3.409-5.932,6.626c-0.925,3.217-0.439,6.76,1.302,9.477l13.219,20.625
		c1.665,2.596,4.277,4.123,7.05,4.123h96.938c2.773,0,5.385-1.527,7.051-4.123l13.219-20.625
		C326.479,233.689,326.965,230.146,326.04,226.929z M264.812,235.374c0,5.695-3.945,10.312-8.813,10.312
		c-4.867,0-8.812-4.617-8.812-10.312v-10.312h17.625V235.374z"/>
</g>
<g>
	<circle fill="#FFFFFF" cx="133" cy="212.781" r="13.5"/>
	<circle fill="#FFFFFF" cx="308.875" cy="155.421" r="5.359"/>
	<circle fill="#FFFFFF" cx="344" cy="377" r="21.5"/>
	<circle fill="#FFFFFF" cx="411.859" cy="144.562" r="10.859"/>
	<circle fill="#FFFFFF" cx="109" cy="302.219" r="10.5"/>
	<circle fill="#FFFFFF" cx="389" cy="212.781" r="11"/>
	<circle fill="#FFFFFF" cx="124.719" cy="134.062" r="10.5"/>
	<circle fill="#FFFFFF" cx="227" cy="138" r="14.438"/>
	<circle fill="#FFFFFF" cx="283.5" cy="75" r="13.75"/>
	<circle fill="#FFFFFF" cx="344" cy="286" r="9"/>
	<circle fill="#FFFFFF" cx="417.43" cy="292.093" r="11.43"/>
	<circle fill="#FFFFFF" cx="138.5" cy="382.5" r="5.5"/>
	<circle fill="#FFFFFF" cx="185.5" cy="341" r="9"/>
	<circle fill="#FFFFFF" cx="227" cy="428" r="14.438"/>
	<circle fill="#FFFFFF" cx="265" cy="359" r="9"/>
	<g>
		<line fill="none" stroke="#FFFFFF" stroke-width="2" stroke-miterlimit="10" x1="124.719" y1="134.062" x2="227" y2="138"/>
		<line fill="none" stroke="#FFFFFF" stroke-width="2" stroke-miterlimit="10" x1="227" y1="138" x2="283.5" y2="75"/>
		<line fill="none" stroke="#FFFFFF" stroke-width="2" stroke-miterlimit="10" x1="283.5" y1="75" x2="308.875" y2="155.421"/>
		<line fill="none" stroke="#FFFFFF" stroke-width="2" stroke-miterlimit="10" x1="308.875" y1="155.421" x2="389" y2="212.781"/>
		<line fill="none" stroke="#FFFFFF" stroke-width="2" stroke-miterlimit="10" x1="389" y1="212.781" x2="411.859" y2="144.562"/>
		<line fill="none" stroke="#FFFFFF" stroke-width="2" stroke-miterlimit="10" x1="344" y1="286" x2="417.43" y2="292.093"/>
		<line fill="none" stroke="#FFFFFF" stroke-width="2" stroke-miterlimit="10" x1="417.43" y1="292.093" x2="389" y2="212.781"/>
		<line fill="none" stroke="#FFFFFF" stroke-width="2" stroke-miterlimit="10" x1="344" y1="286" x2="389" y2="212.781"/>
		<line fill="none" stroke="#FFFFFF" stroke-width="2" stroke-miterlimit="10" x1="344" y1="377" x2="344" y2="286"/>
		<line fill="none" stroke="#FFFFFF" stroke-width="2" stroke-miterlimit="10" x1="344" y1="377" x2="234" y2="428"/>
		<line fill="none" stroke="#FFFFFF" stroke-width="2" stroke-miterlimit="10" x1="265" y1="359" x2="227" y2="428"/>
		<line fill="none" stroke="#FFFFFF" stroke-width="2" stroke-miterlimit="10" x1="138.5" y1="382.5" x2="185.5" y2="341"/>
		<line fill="none" stroke="#FFFFFF" stroke-width="2" stroke-miterlimit="10" x1="185.5" y1="341" x2="265" y2="359"/>
		<line fill="none" stroke="#FFFFFF" stroke-width="2" stroke-miterlimit="10" x1="109" y1="302.219" x2="185.5" y2="341"/>
		<line fill="none" stroke="#FFFFFF" stroke-width="2" stroke-miterlimit="10" x1="133" y1="212.781" x2="227" y2="138"/>
		<line fill="none" stroke="#FFFFFF" stroke-width="2" stroke-miterlimit="10" x1="133" y1="212.781" x2="208" y2="230.218"/>
		<line fill="none" stroke="#FFFFFF" stroke-width="2" stroke-miterlimit="10" x1="185.5" y1="341" x2="234" y2="295"/>
		<line fill="none" stroke="#FFFFFF" stroke-width="2" stroke-miterlimit="10" x1="344" y1="382.5" x2="265" y2="291.719"/>
		<line fill="none" stroke="#FFFFFF" stroke-width="2" stroke-miterlimit="10" x1="389" y1="212.781" x2="297.25" y2="230.218"/>
		<line fill="none" stroke="#FFFFFF" stroke-width="2" stroke-miterlimit="10" x1="227" y1="138" x2="241.438" y2="212.781"/>
		<line fill="none" stroke="#FFFFFF" stroke-width="2" stroke-miterlimit="10" x1="61.859" y1="226.281" x2="133" y2="212.781"/>
	</g>
	<circle fill="#FFFFFF" cx="61.859" cy="226.281" r="10.859"/>
</g>
</svg>
